<svg viewBox="0 45 160 10" xmlns="http://www.w3.org/2000/svg" xmlns:xlink="http://www.w3.org/1999/xlink" overflow="visible"><defs><clipPath id="clip0"><rect x="255" y="47" width="163" height="138"/></clipPath></defs><g clip-path="url(#clip0)" transform="translate(-255 -47)"><path d="M383.783 101.623C387.301 101.623 390.139 104.453 390.139 107.962 390.177 111.434 387.301 114.302 383.783 114.302 380.264 114.302 377.427 111.472 377.427 107.962 377.427 104.453 380.264 101.623 383.783 101.623ZM345.61 101.623C349.128 101.623 351.966 104.453 351.966 107.962 351.966 111.434 349.128 114.302 345.61 114.302 342.091 114.302 339.254 111.472 339.254 107.962 339.254 104.453 342.091 101.623 345.61 101.623ZM288.785 101.623C292.303 101.623 295.141 104.453 295.141 107.962 295.178 111.434 292.303 114.302 288.785 114.302 285.266 114.302 282.429 111.472 282.429 107.962 282.429 104.453 285.304 101.623 288.785 101.623ZM345.61 92.6792C345.61 92.6792 329.228 92.6792 329.228 107.925 329.228 107.925 328.698 122.981 345.61 122.981 345.61 122.981 362.37 122.943 362.37 107.925 362.37 107.925 362.899 92.6792 345.61 92.6792ZM381.399 92.6415C381.399 92.6415 367.363 92.0377 367.363 107.811 367.363 107.811 367.212 122.491 381.021 122.491 381.021 122.491 386.658 122.717 389.723 118.717L389.723 121.019C389.723 121.019 390.404 128.264 383.404 128.264L381.021 128.264 381.021 137.019 384.88 137.019C384.88 137.019 399.37 137.17 399.37 121.547L399.37 93.6226 389.723 93.6226 389.723 93.6604 389.723 96.4151C389.723 96.4151 386.885 92.6415 381.399 92.6415ZM272.63 80.7547 272.63 121.962 282.656 121.962 282.656 118.755C282.656 118.755 285.001 123.019 290.979 123.019 290.979 123.019 304.939 122.491 304.939 107.623 304.939 107.623 304.447 92.566 290.979 92.566 290.979 92.566 286.553 92.566 282.542 96.4528L282.542 80.7547ZM308.155 79.8491 308.155 89.3962C308.155 89.3962 312.695 89.2076 312.695 97.5849L312.695 121.962 322.267 121.962 322.267 95.3208C322.229 95.3208 322.645 79.8491 308.155 79.8491ZM280.575 48 391.387 48C405.499 48 416.962 59.4717 416.962 73.6226L416.962 134.377 417 134.377C417 148.528 405.537 160 391.425 160L353.258 160 340.275 181.208C340.275 181.208 340.162 181.472 339.821 181.849 339.027 183.132 337.665 184 336.038 184 334.411 184 333.011 183.094 332.255 181.811 331.99 181.472 331.838 181.208 331.838 181.208L318.773 160 280.575 160C266.426 160 255 148.528 255 134.377L255 73.6226C255 59.4717 266.463 48 280.575 48Z" fill="current" width="current" height="current" /></g></svg>